<svg xmlns="http://www.w3.org/2000/svg" xml:space="preserve" fill-rule="evenodd" stroke-linejoin="round" stroke-miterlimit="2" clip-rule="evenodd" viewBox="0 0 500 458">
  <path fill="currentColor" fill-rule="nonzero" d="M449.54.134C303.26 16.014 140.379 37.212 0 65.948l44.437 300.956c91.014-18.704 189.747-35.413 287.38-48.916a437 437 0 0 0-5.01-20.975c-87.788 13.163-176.71 29.036-256.036 46.763l-10.233 2.286L23.294 92.886l-1.297-8.832 8.686-2.059c126.643-30.027 267.206-50.286 391.691-60.009l8.766-.684 46.425 255.56-10.277 1.224a4571 4571 0 0 0-39.911 4.949 556 556 0 0 0 5.765 22.07c22.546-2.615 44.889-5.055 66.858-7.25zm-34.402 42.033C296.601 51.836 164.114 71.042 43.877 98.988l32.889 223.586c73.16-16.047 153.525-30.447 233.408-42.654-8.876-9.722-13.583-22.147-14.57-35.348-1.113-14.902 7.717-27.201 18.211-35.965s23.289-14.865 34.818-18.137c8.739-2.479 18.87-3.928 29.118-3.655 3.428.088 6.848.381 10.241.876 13.579 2.001 27.486 7.825 34.694 20.872 9.602 17.382 9.554 37.731 3.253 55.12q14.385-1.847 28.783-3.601zm-254.514 70.878 2.847 19.265-80.069 11.822-2.845-19.266zm122.026 43.89 3.262 19.2-191.018 32.449-3.26-19.201zm-43.303 46.251 3.248 19.202-140.72 23.813-3.248-19.202zm134.875 3.132c-7.143.13-14.385 1.218-20.27 2.887-8.879 2.52-19.864 7.846-27.65 14.35-7.787 6.503-11.74 13.311-11.273 19.566.91 12.181 5.025 20.921 14.047 27.807s23.952 11.887 46.737 12.681c12.526.435 23.43-8.254 29.851-21.8s7.167-30.814-.022-43.83c-3.156-5.712-10.374-9.53-20.488-11.02a64 64 0 0 0-7.88-.636 78 78 0 0 0-3.052-.005m34.728 83.539c-9.052 8.369-20.629 13.672-33.813 13.212-10.255-.356-19.472-1.482-27.728-3.365 12.971 51.933 16.928 107.19 21.031 158.162 13.381-9.01 24.305-21.143 30.927-39.193l5.328-14.523 10.791 11.085c13.041 13.396 27.447 20.588 42.977 26.564-15.858-47.694-36.919-99.562-49.513-151.942"/>
</svg>
