<svg xmlns="http://www.w3.org/2000/svg" xml:space="preserve" fill-rule="evenodd" stroke-linejoin="round" stroke-miterlimit="2" clip-rule="evenodd" viewBox="0 0 444 500">
  <g fill="currentColor" fill-rule="nonzero">
    <path d="M222 500a38.4 38.4 0 0 1-19.215-5.143l-61.144-36.197c-9.125-5.108-4.679-6.911-1.661-7.965a122 122 0 0 0 27.662-12.5 4.7 4.7 0 0 1 4.553.339l46.984 27.912a6.08 6.08 0 0 0 5.678 0l183.219-105.753a5.78 5.78 0 0 0 2.804-4.964V144.188a5.92 5.92 0 0 0-2.84-5.054L224.822 33.471a5.77 5.77 0 0 0-5.661 0L36.049 139.17a5.9 5.9 0 0 0-2.893 5.018v211.451a5.63 5.63 0 0 0 2.875 4.893l50.252 29.001c27.232 13.608 43.911-2.429 43.911-18.536V162.224c0-2.939 2.419-5.357 5.358-5.357h23.214c2.939 0 5.358 2.418 5.358 5.357v208.791c0 36.34-19.787 57.144-54.252 57.144a78.4 78.4 0 0 1-42.197-11.465l-48.162-27.625a38.72 38.72 0 0 1-19.215-33.43V144.188a38.65 38.65 0 0 1 19.215-33.483L202.75 4.917a40.14 40.14 0 0 1 38.501 0l183.218 105.788a38.7 38.7 0 0 1 19.233 33.394v211.54a38.81 38.81 0 0 1-19.233 33.43L241.251 494.857A38.43 38.43 0 0 1 222 500"/>
    <path d="M187.249 284.87c0-2.939 2.419-5.357 5.358-5.357h23.696a5.37 5.37 0 0 1 5.268 4.482c3.572 24.125 14.287 36.286 62.734 36.286 38.59 0 55.037-8.732 55.037-29.215 0-11.803-4.661-20.572-64.644-26.447-50.144-4.964-81.145-16.071-81.145-56.144 0-36.965 31.161-59.019 83.395-59.019 58.698 0 87.752 20.375 91.431 64.091q.015.205.015.411c0 2.911-2.373 5.317-5.283 5.357h-23.858a5.37 5.37 0 0 1-5.143-4.143c-5.697-25.376-19.643-33.483-57.144-33.483-42.144 0-47.037 14.679-47.037 25.679 0 13.322 5.786 17.215 62.68 24.733 56.305 7.446 83.055 17.982 83.055 57.555 0 39.929-33.286 62.787-91.341 62.787-80.27.107-97.074-36.697-97.074-67.573"/>
  </g>
</svg>
