<svg width="164" height="94" viewBox="0 0 164 94" fill="none" xmlns="http://www.w3.org/2000/svg">
<path d="M100.346 21.9285V21.8897C98.8251 22.9233 97.0216 23.4775 95.174 23.4788C89.1561 23.4788 86.5186 19.3462 86.5186 15.8677C86.5186 12.3892 89.1561 8.28574 95.174 8.28574C97.0159 8.29379 98.8121 8.8512 100.326 9.8845L102.87 4.87021C102.87 4.87021 99.9174 2.49146 94.2489 2.49146C86.804 2.49146 80.0283 8.5086 80.0283 15.9307C80.0283 23.3528 86.8335 29.2924 94.2489 29.2924C95.3176 29.2956 96.3845 29.2065 97.4374 29.026L100.346 21.9285Z" fill="#933195"/>
<path d="M11.2583 24.8306C17.4762 24.8306 22.5167 19.8678 22.5167 13.7459C22.5167 7.62393 17.4762 2.66113 11.2583 2.66113C5.04053 2.66113 0 7.62393 0 13.7459C0 19.8678 5.04053 24.8306 11.2583 24.8306Z" fill="#933195"/>
<path d="M36.3689 24.5501C42.4204 23.1438 46.1683 17.1738 44.74 11.2155C43.3117 5.25732 37.2481 1.56724 31.1965 2.9735C25.145 4.37977 21.3971 10.3499 22.8254 16.3081C24.2537 22.2663 30.3173 25.9564 36.3689 24.5501Z" fill="#933195"/>
<path d="M58.1044 24.658C64.2419 23.6771 68.4097 17.9832 67.4135 11.9404C66.4172 5.89759 60.6342 1.79408 54.4967 2.77497C48.3592 3.75586 44.1914 9.44971 45.1877 15.4925C46.1839 21.5354 51.967 25.6389 58.1044 24.658Z" fill="#933195"/>
<path d="M11.2583 47.0049C17.4762 47.0049 22.5167 42.0421 22.5167 35.9202C22.5167 29.7982 17.4762 24.8354 11.2583 24.8354C5.04053 24.8354 0 29.7982 0 35.9202C0 42.0421 5.04053 47.0049 11.2583 47.0049Z" fill="#933195"/>
<path d="M33.7798 47.0049C39.9976 47.0049 45.0382 42.0421 45.0382 35.9202C45.0382 29.7982 39.9976 24.8354 33.7798 24.8354C27.562 24.8354 22.5215 29.7982 22.5215 35.9202C22.5215 42.0421 27.562 47.0049 33.7798 47.0049Z" fill="#933195"/>
<path d="M56.3013 46.9951C62.5191 46.9951 67.5597 42.0323 67.5597 35.9104C67.5597 29.7885 62.5191 24.8257 56.3013 24.8257C50.0835 24.8257 45.043 29.7885 45.043 35.9104C45.043 42.0323 50.0835 46.9951 56.3013 46.9951Z" fill="#933195"/>
<path d="M11.2583 69.1792C17.4762 69.1792 22.5167 64.2164 22.5167 58.0945C22.5167 51.9726 17.4762 47.0098 11.2583 47.0098C5.04053 47.0098 0 51.9726 0 58.0945C0 64.2164 5.04053 69.1792 11.2583 69.1792Z" fill="#933195"/>
<path d="M33.7798 69.1792C39.9976 69.1792 45.0382 64.2164 45.0382 58.0945C45.0382 51.9726 39.9976 47.0098 33.7798 47.0098C27.562 47.0098 22.5215 51.9726 22.5215 58.0945C22.5215 64.2164 27.562 69.1792 33.7798 69.1792Z" fill="#FF6A1B"/>
<path d="M56.3013 69.1694C62.5191 69.1694 67.5597 64.2066 67.5597 58.0847C67.5597 51.9628 62.5191 47 56.3013 47C50.0835 47 45.043 51.9628 45.043 58.0847C45.043 64.2066 50.0835 69.1694 56.3013 69.1694Z" fill="#FF6A1B"/>
<path d="M90.0276 62.4256C90.8526 62.4643 91.669 62.2465 92.3614 61.8031C93.0537 61.3596 93.5869 60.713 93.8853 59.9548C94.6234 58.3076 94.9613 55.7447 94.899 52.2662C94.3551 53.5505 93.3785 54.6112 92.1336 55.2699C90.734 56.0244 89.1576 56.4037 87.5623 56.3697C84.4066 56.3697 81.9151 55.4298 80.0879 53.5501C78.2608 51.6703 77.3455 48.975 77.3423 45.4642C77.3017 43.4255 77.7732 41.4085 78.7151 39.5924C79.6222 37.8908 81.0327 36.5004 82.7598 35.6052C84.7391 34.616 86.9377 34.1281 89.1566 34.1857C92.5387 34.1857 95.1745 34.885 97.064 36.2835C98.9811 37.7048 100.366 39.7119 101.001 41.9906C101.783 44.8217 102.149 47.7486 102.088 50.682C102.088 56.6442 101.166 61.1563 99.3226 64.2181C97.479 67.28 94.379 68.8109 90.0226 68.8109C87.8722 68.8699 85.7429 68.3792 83.8424 67.3866C82.1889 66.5028 80.8136 65.1889 79.8665 63.5883C78.9344 61.9904 78.3936 60.2006 78.287 58.3609H85.8598C86.3027 61.0707 87.6919 62.4256 90.0276 62.4256ZM93.0538 42.3733C92.232 41.4867 91.0363 41.0458 89.4568 41.0458C88.8501 41.0119 88.2427 41.0972 87.6699 41.2968C87.0971 41.4965 86.5704 41.8064 86.1206 42.2086C85.3202 42.9902 84.9183 44.1206 84.915 45.5999C84.9118 47.0791 85.3218 48.2209 86.1452 49.0251C86.5968 49.4334 87.1267 49.7488 87.7039 49.9527C88.281 50.1565 88.8937 50.2447 89.506 50.212C90.7443 50.2506 91.9546 49.8442 92.911 49.0687C93.3744 48.6673 93.7389 48.1673 93.9768 47.6065C94.2146 47.0458 94.3197 46.4391 94.2839 45.8324C94.3383 44.5669 93.8981 43.329 93.0538 42.3733Z" fill="#FF6A1B"/>
<path d="M108.534 38.4974C109.552 37.0144 110.97 35.84 112.628 35.1061C114.727 34.2425 116.979 33.7979 119.253 33.7979C121.528 33.7979 123.78 34.2425 125.879 35.1061C127.533 35.8365 128.944 37.0121 129.948 38.4974C130.828 39.8279 131.297 41.3814 131.297 42.9691C131.346 44.5407 130.918 46.091 130.066 47.4214C129.184 48.697 127.93 49.68 126.469 50.241C130.222 51.8882 132.1 54.6691 132.104 58.5836C132.158 60.6298 131.563 62.6418 130.401 64.3392C129.242 65.9552 127.642 67.215 125.786 67.9727C121.583 69.6179 116.9 69.6179 112.697 67.9727C110.83 67.2208 109.221 65.9603 108.057 64.3392C106.895 62.6418 106.299 60.6298 106.354 58.5836C106.354 54.6691 108.232 51.8882 111.988 50.241C110.527 49.6813 109.273 48.6981 108.391 47.4214C107.54 46.091 107.112 44.5407 107.161 42.9691C107.163 41.3782 107.64 39.8229 108.534 38.4974ZM115.561 61.4227C116.617 62.2083 117.905 62.6333 119.229 62.6333C120.553 62.6333 121.841 62.2083 122.897 61.4227C123.352 61.0004 123.708 60.4857 123.941 59.9143C124.174 59.3429 124.278 58.7285 124.245 58.1137C124.277 57.4982 124.167 56.8836 123.925 56.3151C123.684 55.7467 123.315 55.2388 122.848 54.829C121.803 54.0589 120.534 53.6426 119.229 53.6426C117.924 53.6426 116.654 54.0589 115.61 54.829C115.141 55.2382 114.773 55.7459 114.531 56.3145C114.289 56.8831 114.18 57.498 114.212 58.1137C114.183 58.7245 114.289 59.3343 114.522 59.9012C114.754 60.4681 115.109 60.9789 115.561 61.3984V61.4227ZM116.225 47.2179C117.086 47.8712 118.142 48.2256 119.229 48.2256C120.316 48.2256 121.372 47.8712 122.233 47.2179C122.619 46.8403 122.918 46.3853 123.11 45.8837C123.302 45.3822 123.382 44.8458 123.345 44.3111C123.374 43.7707 123.288 43.2303 123.092 42.7247C122.897 42.219 122.595 41.7593 122.208 41.3752C121.374 40.6834 120.317 40.304 119.226 40.304C118.135 40.304 117.079 40.6834 116.244 41.3752C115.858 41.7597 115.558 42.2196 115.363 42.7252C115.168 43.2309 115.083 43.7711 115.113 44.3111C115.075 44.8458 115.155 45.3822 115.347 45.8837C115.539 46.3853 115.838 46.8403 116.225 47.2179Z" fill="#FF6A1B"/>
<path d="M139.061 38.4974C140.079 37.0144 141.497 35.84 143.155 35.1061C145.254 34.2425 147.506 33.7979 149.781 33.7979C152.055 33.7979 154.308 34.2425 156.406 35.1061C158.06 35.8365 159.471 37.0121 160.476 38.4974C161.356 39.8279 161.824 41.3814 161.824 42.9691C161.873 44.5407 161.445 46.091 160.594 47.4214C159.711 48.697 158.457 49.68 156.997 50.241C160.753 51.8882 162.631 54.6691 162.631 58.5836C162.686 60.6298 162.09 62.6418 160.928 64.3392C159.769 65.9552 158.169 67.215 156.313 67.9727C152.11 69.6179 147.427 69.6179 143.224 67.9727C141.358 67.2208 139.748 65.9603 138.584 64.3392C137.422 62.6418 136.827 60.6298 136.881 58.5836C136.881 54.6691 138.759 51.8882 142.515 50.241C141.054 49.6813 139.8 48.6981 138.918 47.4214C138.067 46.091 137.639 44.5407 137.688 42.9691C137.69 41.3782 138.168 39.8229 139.061 38.4974ZM146.088 61.4227C147.144 62.2083 148.432 62.6333 149.756 62.6333C151.08 62.6333 152.368 62.2083 153.424 61.4227C153.88 61.0004 154.236 60.4857 154.469 59.9143C154.701 59.3429 154.805 58.7285 154.773 58.1137C154.804 57.4982 154.695 56.8836 154.453 56.3151C154.211 55.7467 153.843 55.2388 153.375 54.829C152.331 54.0589 151.061 53.6426 149.756 53.6426C148.451 53.6426 147.182 54.0589 146.137 54.829C145.669 55.2382 145.3 55.7459 145.058 56.3145C144.816 56.8831 144.707 57.498 144.74 58.1137C144.711 58.7245 144.816 59.3343 145.049 59.9012C145.282 60.4681 145.636 60.9789 146.088 61.3984V61.4227ZM146.752 47.2179C147.613 47.8712 148.669 48.2256 149.756 48.2256C150.843 48.2256 151.899 47.8712 152.76 47.2179C153.146 46.8403 153.446 46.3853 153.638 45.8837C153.83 45.3822 153.91 44.8458 153.872 44.3111C153.901 43.7707 153.815 43.2303 153.62 42.7247C153.424 42.219 153.123 41.7593 152.736 41.3752C151.902 40.6837 150.846 40.3045 149.756 40.3045C148.666 40.3045 147.611 40.6837 146.777 41.3752C146.39 41.7593 146.088 42.219 145.893 42.7247C145.697 43.2303 145.611 43.7707 145.64 44.3111C145.603 44.8458 145.683 45.3822 145.875 45.8837C146.067 46.3853 146.366 46.8403 146.752 47.2179Z" fill="#FF6A1B"/>
<path d="M127.173 28.8081H120.747L118.808 23.6436H108.819L106.876 28.8081H100.449L111.068 2.97119H116.579L127.173 28.8081ZM113.843 10.9553H113.779L110.827 18.4743H116.732L113.843 10.9553Z" fill="#933195"/>
<path d="M135.145 23.6485H144.179V28.8081H129.166V2.97119H135.145V23.6485Z" fill="#933195"/>
<path d="M152.15 23.6485H161.185V28.8081H146.172V2.97119H152.15V23.6485Z" fill="#933195"/>
<path d="M10.1168 80.9955L7.82382 88.9069H4.19734L0.118164 74.833H3.74957L6.20988 84.5224H6.29844L8.90143 74.833H11.3617L13.9697 84.5224H14.0533L16.5136 74.833H20.1204L16.0412 88.9263H12.4098L10.1168 80.9955Z" fill="#933195"/>
<path d="M22.0885 84.9439C22.0854 85.1897 22.1337 85.4336 22.2304 85.6602C22.327 85.8869 22.4701 86.0916 22.6505 86.2615C22.831 86.4315 23.045 86.5631 23.2793 86.6481C23.5136 86.7331 23.7632 86.7698 24.0125 86.7558C24.4279 86.7885 24.845 86.7167 25.2245 86.5472C25.6041 86.3778 25.9337 86.1161 26.1824 85.7869L28.4066 86.8818C27.4224 88.5387 25.7691 89.1685 23.791 89.1685C23.1595 89.1886 22.5303 89.0835 21.9408 88.8594C21.3514 88.6353 20.8137 88.2969 20.3598 87.8641C19.9058 87.4314 19.5448 86.9132 19.2983 86.3404C19.0518 85.7675 18.9248 85.1518 18.9248 84.5297C18.9248 83.9076 19.0518 83.2918 19.2983 82.719C19.5448 82.1461 19.9058 81.628 20.3598 81.1952C20.8137 80.7625 21.3514 80.424 21.9408 80.1999C22.5303 79.9759 23.1595 79.8708 23.791 79.8909C26.4974 79.8909 28.564 81.4654 28.564 84.5418C28.5742 84.6773 28.5742 84.8133 28.564 84.9487L22.0885 84.9439ZM25.5575 83.2725C25.5236 82.8653 25.3278 82.4877 25.0126 82.2219C24.6975 81.9561 24.2885 81.8235 23.8747 81.853C22.8167 81.853 22.2263 82.4682 22.177 83.2725H25.5575Z" fill="#933195"/>
<path d="M33.4898 76.3493C33.4898 78.2097 32.1169 79.7406 30.8523 80.7774L30.0355 80.1621C30.6377 79.5611 31.0526 78.8029 31.2312 77.9772C30.8545 77.8986 30.5158 77.6969 30.2701 77.4049C30.0245 77.113 29.8863 76.7478 29.878 76.3687C29.8754 76.1355 29.9196 75.904 30.0081 75.6876C30.0965 75.4711 30.2274 75.274 30.3933 75.1075C30.5592 74.941 30.7569 74.8083 30.975 74.7172C31.1931 74.626 31.4273 74.5781 31.6642 74.5762C32.1445 74.5749 32.6059 74.7605 32.9479 75.0926C33.2898 75.4248 33.4846 75.8765 33.4898 76.3493Z" fill="#933195"/>
<path d="M34.7988 80.1621H37.8693V81.4266H37.9037C38.2059 80.981 38.6098 80.6113 39.0832 80.3472C39.5566 80.083 40.0863 79.9317 40.6297 79.9053C41.3252 79.9011 42.0076 80.0909 42.598 80.4528L41.3137 83.0157C40.8493 82.6853 40.2872 82.515 39.7145 82.5312C38.1202 82.5312 37.8939 84.0863 37.8939 84.3092V88.9214H34.7988V80.1621Z" fill="#933195"/>
<path d="M45.7711 84.9439C45.7679 85.1902 45.8164 85.4344 45.9134 85.6614C46.0104 85.8885 46.1538 86.0934 46.3348 86.2634C46.5158 86.4334 46.7304 86.5649 46.9653 86.6496C47.2002 86.7343 47.4503 86.7705 47.7 86.7558C48.1154 86.7885 48.5325 86.7167 48.9121 86.5472C49.2916 86.3778 49.6212 86.1161 49.87 85.7869L52.0892 86.8818C51.105 88.5387 49.4517 89.1685 47.4736 89.1685C46.8421 89.1886 46.2129 89.0835 45.6235 88.8594C45.034 88.6353 44.4963 88.2969 44.0424 87.8641C43.5884 87.4314 43.2275 86.9132 42.9809 86.3404C42.7344 85.7675 42.6074 85.1518 42.6074 84.5297C42.6074 83.9076 42.7344 83.2918 42.9809 82.719C43.2275 82.1461 43.5884 81.628 44.0424 81.1952C44.4963 80.7625 45.034 80.424 45.6235 80.1999C46.2129 79.9759 46.8421 79.8708 47.4736 79.8909C50.18 79.8909 52.2466 81.4654 52.2466 84.5418C52.2568 84.6773 52.2568 84.8133 52.2466 84.9487L45.7711 84.9439ZM49.245 83.2725C49.2099 82.8658 49.0137 82.489 48.6989 82.2234C48.384 81.9578 47.9758 81.8248 47.5622 81.853C47.3547 81.8302 47.1446 81.8495 46.9448 81.9094C46.7451 81.9694 46.5598 82.0689 46.4005 82.2017C46.2411 82.3346 46.111 82.4981 46.018 82.6822C45.925 82.8663 45.8711 83.0672 45.8597 83.2725H49.245Z" fill="#933195"/>
<path d="M58.1816 74.2129H61.2521V81.0682H61.2865C61.6114 80.7156 62.0038 80.4296 62.4412 80.2268C62.8786 80.0239 63.3524 79.9081 63.8354 79.8861C65.4691 79.8861 67.7424 80.6903 67.7424 83.132V88.9069H64.6719V83.9556C64.6838 83.7393 64.6516 83.5228 64.5772 83.3189C64.5028 83.115 64.3877 82.9279 64.2386 82.7685C64.0896 82.6091 63.9096 82.4807 63.7094 82.3909C63.5092 82.301 63.2927 82.2516 63.0727 82.2454C62.6092 82.2617 62.1679 82.4447 61.8324 82.7599C61.4968 83.0751 61.2903 83.5006 61.2521 83.9556V88.9069H58.1816V74.2129Z" fill="#933195"/>
<path d="M72.0768 84.9439C72.0736 85.1902 72.1221 85.4344 72.2191 85.6614C72.316 85.8885 72.4595 86.0934 72.6405 86.2634C72.8215 86.4334 73.0361 86.5649 73.271 86.6496C73.5059 86.7343 73.756 86.7705 74.0057 86.7558C74.4211 86.7885 74.8382 86.7167 75.2177 86.5472C75.5973 86.3778 75.9269 86.1161 76.1757 85.7869L78.3948 86.8818C77.4107 88.5387 75.7574 89.1685 73.7793 89.1685C73.1478 89.1886 72.5186 89.0835 71.9291 88.8594C71.3397 88.6353 70.802 88.2969 70.3481 87.8641C69.8941 87.4314 69.5331 86.9132 69.2866 86.3404C69.0401 85.7675 68.9131 85.1518 68.9131 84.5297C68.9131 83.9076 69.0401 83.2918 69.2866 82.719C69.5331 82.1461 69.8941 81.628 70.3481 81.1952C70.802 80.7625 71.3397 80.424 71.9291 80.1999C72.5186 79.9759 73.1478 79.8708 73.7793 79.8909C76.4856 79.8909 78.5523 81.4654 78.5523 84.5418C78.5625 84.6773 78.5625 84.8133 78.5523 84.9487L72.0768 84.9439ZM75.5507 83.2725C75.5156 82.8658 75.3194 82.489 75.0046 82.2234C74.6897 81.9578 74.2815 81.8248 73.8679 81.853C73.6603 81.8302 73.4503 81.8495 73.2505 81.9094C73.0508 81.9694 72.8655 82.0689 72.7062 82.2017C72.5468 82.3346 72.4166 82.4981 72.3236 82.6822C72.2306 82.8663 72.1768 83.0672 72.1654 83.2725H75.5507Z" fill="#933195"/>
<path d="M79.8369 80.1621H82.9074V81.4265H82.9418C83.244 80.981 83.6479 80.6113 84.1213 80.3471C84.5947 80.083 85.1243 79.9317 85.6678 79.9053C86.3631 79.9021 87.0453 80.0918 87.6361 80.4528L86.3518 83.0156C85.8874 82.6853 85.3253 82.515 84.7526 82.5312C83.1583 82.5312 82.932 84.0863 82.932 84.3092V88.9213H79.8615L79.8369 80.1621Z" fill="#933195"/>
<path d="M90.8004 84.9439C90.7972 85.1902 90.8457 85.4344 90.9427 85.6614C91.0396 85.8885 91.1831 86.0934 91.3641 86.2634C91.5451 86.4334 91.7597 86.5649 91.9946 86.6496C92.2295 86.7343 92.4796 86.7705 92.7293 86.7558C93.1447 86.7885 93.5618 86.7167 93.9413 86.5472C94.3209 86.3778 94.6505 86.1161 94.8993 85.7869L97.1185 86.8818C96.1343 88.5387 94.481 89.1685 92.5029 89.1685C91.8714 89.1886 91.2422 89.0835 90.6528 88.8594C90.0633 88.6353 89.5256 88.2969 89.0717 87.8641C88.6177 87.4314 88.2567 86.9132 88.0102 86.3404C87.7637 85.7675 87.6367 85.1518 87.6367 84.5297C87.6367 83.9076 87.7637 83.2918 88.0102 82.719C88.2567 82.1461 88.6177 81.628 89.0717 81.1952C89.5256 80.7625 90.0633 80.424 90.6528 80.1999C91.2422 79.9759 91.8714 79.8708 92.5029 79.8909C95.2093 79.8909 97.2759 81.4654 97.2759 84.5418C97.2861 84.6773 97.2861 84.8133 97.2759 84.9487L90.8004 84.9439ZM94.2743 83.2725C94.2379 82.8662 94.0414 82.4902 93.7269 82.2249C93.4124 81.9595 93.0048 81.826 92.5915 81.853C92.3839 81.8302 92.1739 81.8495 91.9741 81.9094C91.7744 81.9694 91.5891 82.0689 91.4298 82.2017C91.2704 82.3346 91.1403 82.4981 91.0473 82.6822C90.9543 82.8663 90.9004 83.0672 90.889 83.2725H94.2743Z" fill="#933195"/>
<path d="M103.727 76.8774H106.802V80.1622H108.677V82.4683H106.802V85.254C106.802 86.0727 107.009 86.47 107.496 86.47C107.772 86.4518 108.036 86.356 108.259 86.1938L109.021 88.6162C108.322 88.9649 107.551 89.1505 106.768 89.1588C104.307 89.1588 103.727 87.3663 103.727 85.8111V82.444H102.442V80.1622H103.727V76.8774Z" fill="#933195"/>
<path d="M114.66 79.886C117.613 79.886 119.97 81.7997 119.97 84.5369C119.97 87.2742 117.731 89.1636 114.66 89.1636C111.452 89.1636 109.297 87.2257 109.297 84.5369C109.297 81.8481 111.659 79.886 114.66 79.886ZM114.66 86.5862C114.935 86.5944 115.208 86.5469 115.464 86.4465C115.719 86.3462 115.95 86.1952 116.144 86.003C116.337 85.8107 116.488 85.5814 116.588 85.3292C116.687 85.077 116.733 84.8073 116.722 84.5369C116.736 84.2604 116.692 83.984 116.594 83.7245C116.496 83.465 116.346 83.2279 116.152 83.0274C115.958 82.8269 115.724 82.6673 115.466 82.5582C115.207 82.4492 114.929 82.393 114.648 82.393C114.367 82.393 114.089 82.4492 113.83 82.5582C113.572 82.6673 113.338 82.8269 113.144 83.0274C112.95 83.2279 112.8 83.465 112.702 83.7245C112.604 83.984 112.56 84.2604 112.574 84.5369C112.558 84.8094 112.6 85.0822 112.698 85.3375C112.796 85.5928 112.948 85.8248 113.144 86.0182C113.339 86.2117 113.574 86.3623 113.833 86.4602C114.092 86.5581 114.369 86.601 114.646 86.5862H114.66Z" fill="#933195"/>
<path d="M125.903 74.2129H128.974V81.0682H129.008C129.334 80.715 129.727 80.4287 130.165 80.2258C130.603 80.023 131.078 79.9075 131.562 79.8861C133.191 79.8861 135.464 80.6903 135.464 83.132V88.9069H132.394V83.9556C132.406 83.7393 132.373 83.5228 132.299 83.3189C132.224 83.115 132.109 82.9279 131.96 82.7685C131.811 82.6091 131.631 82.4807 131.431 82.3909C131.231 82.301 131.014 82.2516 130.794 82.2454C130.331 82.2617 129.89 82.4447 129.554 82.7599C129.218 83.0751 129.012 83.5006 128.974 83.9556V88.9069H125.903V74.2129Z" fill="#933195"/>
<path d="M139.804 84.9439C139.801 85.1899 139.848 85.4341 139.945 85.6611C140.041 85.8881 140.184 86.0931 140.365 86.2632C140.545 86.4333 140.76 86.5648 140.994 86.6496C141.229 86.7343 141.479 86.7705 141.728 86.7558C142.144 86.7885 142.561 86.7167 142.94 86.5472C143.32 86.3778 143.65 86.1161 143.898 85.7869L146.117 86.8818C145.133 88.5387 143.48 89.1685 141.502 89.1685C140.87 89.1886 140.241 89.0835 139.652 88.8594C139.062 88.6353 138.525 88.2969 138.071 87.8641C137.617 87.4314 137.256 86.9132 137.009 86.3404C136.763 85.7675 136.636 85.1518 136.636 84.5297C136.636 83.9076 136.763 83.2918 137.009 82.719C137.256 82.1461 137.617 81.628 138.071 81.1952C138.525 80.7625 139.062 80.424 139.652 80.1999C140.241 79.9759 140.87 79.8708 141.502 79.8909C144.208 79.8909 146.275 81.4654 146.275 84.5418C146.283 84.6773 146.283 84.8132 146.275 84.9487L139.804 84.9439ZM143.273 83.2725C143.238 82.8658 143.042 82.489 142.727 82.2234C142.412 81.9578 142.004 81.8248 141.591 81.853C141.383 81.8302 141.173 81.8495 140.973 81.9094C140.773 81.9694 140.588 82.0689 140.429 82.2017C140.269 82.3346 140.139 82.4981 140.046 82.6822C139.953 82.8663 139.899 83.0672 139.888 83.2725H143.273Z" fill="#933195"/>
<path d="M147.56 74.2129H150.63V88.9069H147.56V74.2129Z" fill="#933195"/>
<path d="M158.576 89.1636C158.042 89.1801 157.509 89.0922 157.009 88.9051C156.509 88.7181 156.052 88.4354 155.663 88.0735V93.3543H152.588V80.1621H155.624V81.1311H155.663C156.034 80.7349 156.484 80.4191 156.986 80.2039C157.488 79.9886 158.029 79.8787 158.576 79.8811C161.179 79.8811 163.005 81.9498 163.005 84.5127C163.005 87.0755 161.179 89.1636 158.576 89.1636ZM157.656 82.4682C157.381 82.4593 157.107 82.5064 156.851 82.6064C156.595 82.7065 156.363 82.8574 156.169 83.0497C155.975 83.242 155.824 83.4716 155.724 83.7241C155.624 83.9767 155.578 84.2468 155.589 84.5175C155.576 84.7941 155.619 85.0705 155.717 85.3299C155.815 85.5894 155.966 85.8266 156.16 86.0271C156.354 86.2275 156.587 86.3872 156.846 86.4962C157.104 86.6053 157.382 86.6615 157.663 86.6615C157.945 86.6615 158.223 86.6053 158.481 86.4962C158.74 86.3872 158.973 86.2275 159.167 86.0271C159.361 85.8266 159.512 85.5894 159.61 85.3299C159.708 85.0705 159.751 84.7941 159.738 84.5175C159.754 84.2442 159.711 83.9705 159.613 83.7145C159.514 83.4585 159.361 83.226 159.165 83.0324C158.968 82.8388 158.732 82.6884 158.472 82.5911C158.212 82.4939 157.934 82.452 157.656 82.4682Z" fill="#933195"/>
</svg>
